<?xml version="1.0" encoding="UTF-8"?>
<svg id="Layer_1" xmlns="http://www.w3.org/2000/svg" version="1.1" viewBox="0 0 14 14">
  <!-- Generator: Adobe Illustrator 29.8.3, SVG Export Plug-In . SVG Version: 2.1.1 Build 3)  -->
  <defs>
    <style>
      .st0 {
        fill: #fff;
      }
    </style>
  </defs>
  <path class="st0" d="M0,1.69v10.62l7.71,1.45V.24L0,1.69ZM6.12,9.7h-1.29l-.98-1.63-.98,1.63h-1.29l1.62-2.7-1.62-2.7h1.29l.98,1.63.98-1.63h1.29l-1.62,2.7,1.62,2.7Z"/>
  <path class="st0" d="M13.27,2.27h-4.67v1.12h1.05v2.04h-1.05v.75h1.05v1.74h-1.05v.75h1.05v1.92h-1.05v1.12h4.67c.4,0,.73-.33.73-.73V3c0-.4-.33-.73-.73-.73ZM12.88,10.6h-2.47v-1.92h2.47v1.92ZM12.88,7.93h-2.47v-1.74h2.47v1.74ZM12.88,5.44h-2.47v-2.04h2.47v2.04Z"/>
</svg>