<?xml version="1.0" encoding="UTF-8"?>
<svg id="Layer_1" xmlns="http://www.w3.org/2000/svg" version="1.1" viewBox="0 0 14 14">
  <!-- Generator: Adobe Illustrator 29.8.3, SVG Export Plug-In . SVG Version: 2.1.1 Build 3)  -->
  <defs>
    <style>
      .st0 {
        fill: none;
        stroke: #fff;
        stroke-linecap: round;
        stroke-linejoin: round;
        stroke-width: 1.5px;
      }
    </style>
  </defs>
  <path class="st0" d="M3.34,10.39h-1.01c-.18,0-.36-.04-.52-.11-.16-.07-.3-.18-.42-.31-.12-.13-.22-.29-.28-.46-.07-.17-.1-.36-.1-.57v-3.44c0-.2.04-.39.1-.57.07-.17.16-.33.28-.46.12-.13.26-.24.42-.31.16-.07.33-.11.52-.11h9.35c.18,0,.36.04.52.11.16.07.3.18.42.31.12.13.22.29.28.46.07.17.1.36.1.57v3.44c0,.2-.04.39-.1.57-.07.17-.16.33-.28.46-.12.13-.26.24-.42.31-.16.07-.33.11-.52.11h-1.01"/>
  <rect class="st0" x="3.97" y="7.34" width="6.07" height="5.55"/>
  <polyline class="st0" points="3.97 3.62 3.97 1.11 10.03 1.11 10.03 3.62"/>
</svg>