<?xml version="1.0" encoding="UTF-8"?>
<svg id="Layer_1" xmlns="http://www.w3.org/2000/svg" version="1.1" viewBox="0 0 14 14">
  <!-- Generator: Adobe Illustrator 29.8.3, SVG Export Plug-In . SVG Version: 2.1.1 Build 3)  -->
  <defs>
    <style>
      .st0 {
        fill: none;
        stroke: #fff;
        stroke-linecap: round;
        stroke-linejoin: round;
        stroke-width: 1.5px;
      }
    </style>
  </defs>
  <path class="st0" d="M32.3,2.56c2.07,2.07,2.07,5.44,0,7.51-1.48,1.48-4.85,2.66-7.51,0-2.07-2.07-2.07-5.44,0-7.51,2.07-2.07,5.44-2.07,7.51,0ZM35.23,13l-2.78-2.8"/>
  <g>
    <path class="st0" d="M12.79,5.41c.14.51.21,1.04.21,1.59,0,3.31-2.69,6-6,6S1,10.31,1,7,3.69,1,7,1c1.11,0,2.16.3,3.05.83"/>
    <polyline class="st0" points="12.62 2.77 7.08 8.31 4.67 5.91"/>
  </g>
</svg>