<?xml version="1.0" encoding="UTF-8"?>
<svg id="Layer_1" xmlns="http://www.w3.org/2000/svg" version="1.1" viewBox="0 0 100 100">
  <!-- Generator: Adobe Illustrator 30.1.0, SVG Export Plug-In . SVG Version: 2.1.1 Build 136)  -->
  <defs>
    <style>
      .st0 {
        fill: #e8ebef;
      }

      .st1 {
        fill: #666a70;
      }
    </style>
  </defs>
  <circle class="st0" cx="50" cy="50" r="50"/>
  <g>
    <path class="st1" d="M57.72,25.46c-2.37-1.12-4.57-1.78-7.89-1.78s-5.94.63-8.25,1.87c-2.31,1.25-4.1,3.07-5.38,5.46-.43.8-2.83,4.58-1.4,7.6,1.43,2.48,5.89,3.85,7.71.82s1.87-3.36,3.3-4.59c1-.75,2.53-1.24,4.06-1.24s2.76.48,3.62,1.44,1.28,2.3,1.28,4.04v.04c0,1.25-.21,2.4-.63,3.46-.42,1.06-.94,2.03-1.55,2.91s-1.47,1.96-2.57,3.23c-1.38,1.63-2.49,3.06-3.33,4.29-1.19,1.81-1.76,4.58-1.34,6.85s2.56,3.83,4.8,3.84c2.78.01,3.98-1.52,4.25-3.26.43-2.82,1.91-4.54,2.26-5.06.7-1.02,1.68-2.28,2.93-3.79,1.32-1.56,2.39-2.93,3.2-4.12.81-1.19,1.48-2.57,2.03-4.15.55-1.58.82-3.36.82-5.32v-.04c0-3.01-.83-5.39-2.5-7.61-1.48-1.97-3.04-3.76-5.42-4.88h0Z"/>
    <circle class="st1" cx="50.23" cy="71.46" r="4.86"/>
  </g>
</svg>