<?xml version="1.0" encoding="UTF-8"?>
<svg id="Layer_1" xmlns="http://www.w3.org/2000/svg" version="1.1" viewBox="0 0 100 100">
  <!-- Generator: Adobe Illustrator 30.1.0, SVG Export Plug-In . SVG Version: 2.1.1 Build 136)  -->
  <defs>
    <style>
      .st0 {
        fill: #e1eeff;
      }

      .st1 {
        fill: #2f80ec;
      }
    </style>
  </defs>
  <circle class="st0" cx="50" cy="50" r="50"/>
  <path class="st1" d="M271.12-64.74l-13.08,14.7c-3.52,3.52-4.34,3.95-8.91.59l-4.06-3.35c-2.77-2.29-6.88-1.89-9.16.88h0c-2.29,2.77-1.89,6.88.88,9.16l13.53,11.16c2.66,2.19,6.57,1.93,8.91-.59l21.43-23.69c2.45-2.63,2.29-6.75-.34-9.2h0c-2.63-2.45-6.75-2.3-9.2.34Z"/>
  <circle class="st1" cx="49.98" cy="30.3" r="5.59"/>
  <path class="st1" d="M50.02,39.83c-3.09,0-5.59,2.51-5.59,5.59v24.28c0,3.09,2.51,5.59,5.59,5.59s5.59-2.51,5.59-5.59v-24.28c0-3.09-2.51-5.59-5.59-5.59Z"/>
</svg>