<?xml version="1.0" encoding="UTF-8"?>
<svg id="Layer_1" xmlns="http://www.w3.org/2000/svg" version="1.1" viewBox="0 0 20 20">
  <!-- Generator: Adobe Illustrator 30.1.0, SVG Export Plug-In . SVG Version: 2.1.1 Build 136)  -->
  <defs>
    <style>
      .st0 {
        fill: #0063c0;
        stroke-miterlimit: 10;
        stroke-width: .5px;
      }

      .st0, .st1 {
        stroke: #0063c0;
      }

      .st1 {
        fill: none;
        stroke-linecap: round;
        stroke-linejoin: round;
        stroke-width: 1.5px;
      }
    </style>
  </defs>
  <path class="st1" d="M10,19c-4.96,0-9-4.04-9-9S5.04,1,10,1s9,4.04,9,9-4.04,9-9,9Z"/>
  <circle class="st0" cx="10" cy="6.07" r="1.09"/>
  <path class="st0" d="M10.85,13.83v-4.89c0-.32-.29-.56-.61-.5l-1.41.33c-.31.06-.53.33-.53.64h.77c.2,0,.35.16.35.35v4.07c0,.22-.17.39-.39.39h-.29c-.25,0-.45.2-.45.45v.11h3.39v-.11c0-.25-.2-.45-.45-.45h0c-.22,0-.39-.17-.39-.39h0Z"/>
</svg>