<?xml version="1.0" encoding="UTF-8"?>
<svg id="Layer_1" xmlns="http://www.w3.org/2000/svg" version="1.1" viewBox="0 0 20 20">
  <!-- Generator: Adobe Illustrator 29.8.3, SVG Export Plug-In . SVG Version: 2.1.1 Build 3)  -->
  <defs>
    <style>
      .st0, .st1, .st2 {
        fill: #ffb243;
      }

      .st1, .st2 {
        fill-rule: evenodd;
      }

      .st2 {
        fill-opacity: 0;
      }
    </style>
  </defs>
  <path class="st2" d="M10,1.67l2.91,5.23,5.92,1.13-4.12,4.36.75,5.93-5.46-2.54-5.46,2.54.75-5.93L1.17,8.03l5.92-1.13,2.91-5.23"/>
  <path class="st1" d="M-36.02,6.57l3.19,5.93,6.7,1.28-4.67,4.94.85,6.72-6.07-2.87-6.29,2.87.85-6.72-4.67-4.95,6.7-1.28,3.41-5.92"/>
  <path class="st0" d="M10.79.55l2.14,5.39c.12.31.4.52.72.55l5.56.47c.76.06,1.06,1.05.49,1.57l-4.24,3.8c-.24.22-.35.56-.27.89l1.29,5.68c.18.77-.63,1.38-1.28.97l-4.76-3.04c-.27-.17-.62-.17-.89,0l-4.76,3.04c-.65.41-1.45-.2-1.28-.97l1.29-5.68c.07-.33-.03-.67-.28-.89L.3,8.53c-.58-.52-.27-1.51.49-1.57l5.56-.47c.32-.03.6-.24.72-.55L9.21.55c.29-.73,1.28-.73,1.58,0Z"/>
</svg>