<?xml version="1.0" encoding="UTF-8"?>
<svg id="_레이어_1" data-name="레이어_1" xmlns="http://www.w3.org/2000/svg" version="1.1" viewBox="0 0 74 78">
  <!-- Generator: Adobe Illustrator 30.1.0, SVG Export Plug-In . SVG Version: 2.1.1 Build 136)  -->
  <defs>
    <style>
      .st0 {
        fill: #ffde00;
      }

      .st1 {
        fill: #231916;
      }
    </style>
  </defs>
  <path class="st0" d="M37,1.85C17.54,1.85,1.76,16.4,1.76,34.34c0,13.25,5.57,19.58,13.2,25.34l.04.02v15.55c0,.74.84,1.16,1.43.72l13.36-9.89.29.12c2.24.41,4.56.63,6.93.63,19.46,0,35.24-14.55,35.24-32.49S56.46,1.85,37,1.85"/>
  <path class="st1" d="M37,0C16.56,0,0,15.27,0,34.11c0,13.91,5.85,20.55,13.86,26.61l.04.02v16.33c0,.77.88,1.21,1.5.75l14.03-10.39.3.13c2.35.43,4.78.66,7.27.66,20.43,0,37-15.27,37-34.11S57.44,0,37,0M24.6,42.75c3.63,0,6.73-2.16,7.66-5.51h5.36c-1.31,6.43-6.34,10.65-13.03,10.65-7.78,0-13.94-5.78-13.94-13.83s6.16-13.83,13.94-13.83c6.76,0,11.82,4.3,13.07,10.85h-5.35c-.81-3.56-4.02-5.78-7.72-5.78-5.23,0-8.71,3.72-8.71,8.75s3.95,8.68,8.71,8.68M59.95,47.36h-4.92v-11.05c0-2.54-1.49-3.91-3.77-3.91-2.55,0-4.19,1.56-4.19,4.71v10.26h-4.92v-27.03h4.92v10.17c1.18-1.78,3.09-2.66,5.68-2.66,2.1,0,3.81.68,5.14,2.09,1.37,1.41,2.06,3.3,2.06,5.77v11.66Z"/>
</svg>