<?xml version="1.0" encoding="UTF-8"?>
<svg id="Layer_1" xmlns="http://www.w3.org/2000/svg" version="1.1" viewBox="0 0 19 18">
  <!-- Generator: Adobe Illustrator 29.8.3, SVG Export Plug-In . SVG Version: 2.1.1 Build 3)  -->
  <defs>
    <style>
      .st0 {
        fill: #fff;
        fill-rule: evenodd;
      }
    </style>
  </defs>
  <path class="st0" d="M.8,0c-.21,0-.42.08-.57.23-.15.15-.23.35-.23.57v16.4c0,.44.36.8.8.8h7.4c.44,0,.8-.36.8-.8s-.36-.8-.8-.8H1.6V1.6h6.6c.44,0,.8-.36.8-.8,0-.44-.36-.8-.8-.8H.8ZM18.15,9.58c.16-.15.25-.36.25-.58s-.09-.43-.25-.58l-5.2-5c-.32-.31-.82-.3-1.13.02-.31.32-.3.82.02,1.13l3.77,3.62H6c-.44,0-.8.36-.8.8s.36.8.8.8h9.61l-3.77,3.62c-.32.31-.33.81-.02,1.13.31.32.81.33,1.13.02l5.2-5Z"/>
</svg>