<?xml version="1.0" encoding="UTF-8"?>
<svg id="_레이어_1" data-name="레이어 1" xmlns="http://www.w3.org/2000/svg" viewBox="0 0 46 46">
  <defs>
    <style>
      .cls-1 {
        fill: #707070;
      }

      .cls-1, .cls-2 {
        stroke-width: 0px;
      }

      .cls-2 {
        fill: #fff;
      }

      .cls-3 {
        fill: none;
        stroke: #e4e4e4;
      }
    </style>
  </defs>
  <g id="_사각형_859" data-name="사각형 859">
    <rect class="cls-2" width="46" height="46" rx="7.67" ry="7.67"/>
    <rect class="cls-3" x=".64" y=".64" width="44.72" height="44.72" rx="7.03" ry="7.03"/>
  </g>
  <path class="cls-1" d="m30.96,22.47l-1.45.15c.09.9,0,1.8-.28,2.67-1.11,3.43-4.81,5.32-8.24,4.22-3.43-1.11-5.32-4.81-4.22-8.24,1.11-3.43,4.81-5.32,8.24-4.22.68.22,1.31.54,1.87.96l.07.07h-2.22v1.45h4.64v-4.8h-1.45v2.25c-.73-.57-1.56-1.02-2.46-1.31-4.2-1.36-8.71.96-10.07,5.16-1.35,4.2.96,8.71,5.16,10.07.81.26,1.64.39,2.45.39,3.38,0,6.52-2.16,7.62-5.54.34-1.06.46-2.16.35-3.26h0Z"/>
</svg>