<?xml version="1.0" ?>
<svg data-name="Layer 2" id="a6467341-fb66-4b7d-9774-f4fde7642e81" viewBox="0 0 38 38" xmlns="http://www.w3.org/2000/svg">
  <path fill="#FFFFFF" d="M29.429,36.744H8.571a5.259,5.259,0,0,1-5.252-5.253V6.508A5.259,5.259,0,0,1,8.571,1.256h13.32A5.238,5.238,0,0,1,25.615,2.8l7.521,7.514a5.306,5.306,0,0,1,1.545,3.729V31.491A5.259,5.259,0,0,1,29.429,36.744ZM8.571,3.756A2.755,2.755,0,0,0,5.819,6.508V31.491a2.756,2.756,0,0,0,2.752,2.753H29.429a2.756,2.756,0,0,0,2.752-2.753V14.04a2.785,2.785,0,0,0-.812-1.959L23.847,4.566a2.749,2.749,0,0,0-1.956-.81Z"/>
  <path fill="#FFFFFF" d="M32.321,13.72H27.665A5.24,5.24,0,0,1,22.43,8.485V2.51h2.5V8.485a2.738,2.738,0,0,0,2.735,2.735h4.656Z"/>
  <path fill="#FFFFFF" d="M28.057,29.769H9.943V13.289H28.057Zm-15.614-2.5H25.557V15.789H12.443Z"/>
  <path fill="#FFFFFF" d="M26.42,22.779H11.68a1.252,1.252,0,0,1,0-2.5H26.42a1.252,1.252,0,0,1,0,2.5Z"/>
  <path fill="#FFFFFF" d="M17,29.539a1.383,1.383,0,0,1-1.25-1.486V15.005A1.383,1.383,0,0,1,17,13.519a1.383,1.383,0,0,1,1.25,1.486V28.053A1.383,1.383,0,0,1,17,29.539Z"/>
</svg>
