<?xml version="1.0" encoding="UTF-8"?><svg id="_레이어_1" xmlns="http://www.w3.org/2000/svg" viewBox="0 0 24 24"><defs><style>.cls-1{fill:#fff;}.cls-2{fill:none;}</style></defs><g><path class="cls-1" d="M16.229,20.847H7.77c-.94,0-1.722-.747-1.781-1.7l-.714-11.186h13.45l-.714,11.187c-.061,.952-.844,1.699-1.782,1.699ZM6.71,9.308l.622,9.754c.016,.247,.208,.439,.439,.439h8.459c.23,0,.424-.193,.439-.439l.622-9.754H6.71Z"/><path class="cls-1" d="M18.8,9.098H5.199c-.577,0-1.045-.469-1.045-1.045v-1.648c0-.576,.469-1.044,1.045-1.044h13.601c.577,0,1.045,.469,1.045,1.044v1.648c0,.577-.469,1.045-1.045,1.045Zm-13.3-1.347h12.998v-1.044H5.501v1.044Z"/><path class="cls-1" d="M14.513,6.707h-5.025v-2.264c0-.711,.578-1.289,1.29-1.289h2.444c.712,0,1.29,.578,1.29,1.289v2.264Zm-3.703-1.347h2.356v-.86h-2.388l.032,.86Z"/><rect class="cls-1" x="11.327" y="11.027" width="1.347" height="6.939"/><polygon class="cls-1" points="8.713 17.965 8.223 11.027 9.566 11.027 10.056 17.965 8.713 17.965"/><polygon class="cls-1" points="15.205 17.965 13.862 17.965 14.353 11.027 15.696 11.027 15.205 17.965"/></g><rect class="cls-2" width="24" height="24"/></svg>