<?xml version="1.0" encoding="UTF-8"?><svg id="_레이어_1" xmlns="http://www.w3.org/2000/svg" viewBox="0 0 24 24"><defs><style>.cls-1{fill:#fff;}.cls-2{fill:none;}</style></defs><rect class="cls-2" width="24" height="24"/><g><path class="cls-1" d="M17.665,20H6.335c-1.287,0-2.335-1.048-2.335-2.335V6.335c0-1.287,1.048-2.335,2.335-2.335h11.33c1.287,0,2.335,1.048,2.335,2.335v11.33c0,1.287-1.048,2.335-2.335,2.335ZM6.335,6c-.185,0-.335,.15-.335,.335v11.33c0,.185,.15,.335,.335,.335h11.33c.185,0,.335-.15,.335-.335V6.335c0-.185-.15-.335-.335-.335H6.335Z"/><polygon class="cls-1" points="20.582 2.382 12.397 10.568 12.373 10.667 11.838 12.686 13.785 12.172 13.956 12.127 22.141 3.941 20.582 2.382"/></g></svg>