<?xml version="1.0" encoding="UTF-8"?><svg id="_레이어_1" xmlns="http://www.w3.org/2000/svg" viewBox="0 0 40 40"><defs><style>.cls-1{fill:#707070;}.cls-2{fill:none;opacity:.3;}</style></defs><rect id="_사각형_369" class="cls-2" width="40" height="40"/><path class="cls-1" d="M30.95,19.28l-1.99,.2c.12,1.24,0,2.47-.39,3.67-1.53,4.72-6.61,7.32-11.33,5.8-4.72-1.52-7.32-6.61-5.8-11.33,1.53-4.72,6.61-7.32,11.33-5.8,.93,.3,1.8,.74,2.57,1.32l.09,.09h-3.05v2h6.38v-6.6h-2v3.09c-1.01-.79-2.14-1.4-3.38-1.8-5.78-1.87-11.98,1.32-13.85,7.09-1.86,5.77,1.32,11.98,7.09,13.85,1.12,.36,2.25,.53,3.37,.53,4.65,0,8.97-2.97,10.48-7.62,.47-1.46,.63-2.97,.48-4.48Z"/></svg>