<svg id="그룹_445" data-name="그룹 445" xmlns="http://www.w3.org/2000/svg" xmlns:xlink="http://www.w3.org/1999/xlink" width="114.076" height="46.174" viewBox="0 0 114.076 46.174">
  <defs>
    <clipPath id="clip-path">
      <rect id="사각형_318" data-name="사각형 318" width="114.076" height="46.174" fill="none"/>
    </clipPath>
  </defs>
  <g id="그룹_436" data-name="그룹 436" clip-path="url(#clip-path)">
    <path id="패스_884" data-name="패스 884" d="M.012,29.514v0a3.572,3.572,0,0,0,2.353,3.355L1.9,32.625a3.573,3.573,0,0,1-1.89-3.111" transform="translate(0.002 3.825)"/>
    <path id="패스_885" data-name="패스 885" d="M5.267,28.664l1.891,1.009V17.357L1.9,14.552a3.573,3.573,0,0,1-1.89-3.111V31.815a3.572,3.572,0,0,1,5.255-3.151" transform="translate(0.002 1.483)" fill="#5782ff"/>
    <path id="패스_886" data-name="패스 886" d="M36.122,14.542,30.861,17.35V29.666l1.9-1.012a3.567,3.567,0,0,1,5.25,3.031V11.52a3.57,3.57,0,0,1-1.885,3.022" transform="translate(4 1.493)" fill="#5782ff"/>
    <path id="패스_887" data-name="패스 887" d="M17.7,22.667c-.1-.029-.192-.061-.285-.1.094.038.189.069.285.1" transform="translate(2.258 2.925)"/>
    <path id="패스_888" data-name="패스 888" d="M19.55,22.656c-.049.015-.1.033-.145.045.049-.012.1-.03.145-.045" transform="translate(2.515 2.937)"/>
    <path id="패스_889" data-name="패스 889" d="M19.962,22.5c-.059.028-.117.056-.177.081.06-.025.119-.053.177-.081" transform="translate(2.565 2.916)"/>
    <path id="패스_890" data-name="패스 890" d="M18.151,22.767c-.12-.019-.237-.041-.352-.071a3.54,3.54,0,0,0,.352.071" transform="translate(2.307 2.942)"/>
    <path id="패스_891" data-name="패스 891" d="M19.106,22.759c-.033.006-.066.014-.1.018.034,0,.067-.012.1-.018" transform="translate(2.464 2.95)"/>
    <path id="패스_892" data-name="패스 892" d="M18.651,22.805h0a3.65,3.65,0,0,1-.459-.03,3.625,3.625,0,0,0,.455.03" transform="translate(2.359 2.952)"/>
    <path id="패스_893" data-name="패스 893" d="M.026,11.177v-.028c-.009.11-.014.219-.012.329v-.041c0-.088.007-.174.014-.26" transform="translate(0.002 1.445)"/>
    <path id="패스_894" data-name="패스 894" d="M1.9,14.586l5.255,2.8V13L5.267,14.009A3.575,3.575,0,0,1,.025,11.175c-.007.086-.012.172-.012.26v.041A3.569,3.569,0,0,0,1.9,14.586" transform="translate(0.002 1.448)" fill="#3972ff"/>
    <path id="패스_895" data-name="패스 895" d="M17.816,22.7c-.049-.012-.1-.03-.145-.045.049.015.1.033.145.045" transform="translate(2.291 2.937)"/>
    <path id="패스_896" data-name="패스 896" d="M17.439,22.578c-.06-.024-.119-.054-.178-.081.06.027.117.056.178.081" transform="translate(2.237 2.916)"/>
    <path id="패스_897" data-name="패스 897" d="M19.444,22.7c-.115.031-.232.052-.349.071.116-.019.234-.041.349-.071" transform="translate(2.475 2.942)"/>
    <path id="패스_898" data-name="패스 898" d="M18.207,22.777c-.033,0-.064-.012-.1-.018.032.006.063.014.1.018" transform="translate(2.348 2.95)"/>
    <path id="패스_899" data-name="패스 899" d="M18.605,22.805a3.625,3.625,0,0,0,.455-.03,3.65,3.65,0,0,1-.459.03h0" transform="translate(2.411 2.952)"/>
    <path id="패스_900" data-name="패스 900" d="M19.817,22.569c-.093.037-.189.069-.285.1.1-.029.191-.06.285-.1" transform="translate(2.532 2.925)"/>
    <path id="패스_901" data-name="패스 901" d="M38,11.2a3.572,3.572,0,0,1-5.238,2.806l-1.9-1.012v4.4l5.261-2.808a3.567,3.567,0,0,0,1.885-3.022v-.13c0-.078-.007-.154-.011-.23" transform="translate(4 1.452)" fill="#3972ff"/>
    <path id="패스_902" data-name="패스 902" d="M15.86,21.786A3.547,3.547,0,0,0,17.5,23.332c.06.028.119.058.178.081.094.037.19.069.286.1.047.015.1.033.143.045a3.415,3.415,0,0,0,.352.071c.032.006.063.014.1.018a3.463,3.463,0,0,0,.917,0c.033,0,.066-.014.1-.018.117-.019.235-.041.349-.071.049-.012.1-.03.146-.045.1-.029.191-.061.284-.1.061-.024.12-.053.178-.081a3.565,3.565,0,0,0,.168-6.381l-1.682-.9-1.682.9a3.573,3.573,0,0,0-1.47,4.835" transform="translate(2.001 2.081)" fill="#3972ff"/>
    <path id="패스_903" data-name="패스 903" d="M.012,29.519v0" transform="translate(0.002 3.821)"/>
    <path id="패스_904" data-name="패스 904" d="M19.962,40.571c-.059.028-.117.056-.177.081.06-.025.119-.053.177-.081" transform="translate(2.565 5.259)"/>
    <path id="패스_905" data-name="패스 905" d="M19.55,40.73c-.049.015-.1.033-.145.045.049-.012.1-.03.145-.045" transform="translate(2.515 5.279)"/>
    <path id="패스_906" data-name="패스 906" d="M17.7,40.741c-.1-.029-.192-.061-.285-.1.094.038.189.069.285.1" transform="translate(2.258 5.268)"/>
    <path id="패스_907" data-name="패스 907" d="M19.106,40.833c-.033.006-.066.014-.1.018.034,0,.067-.012.1-.018" transform="translate(2.464 5.293)"/>
    <path id="패스_908" data-name="패스 908" d="M17.59,40.708a3.573,3.573,0,0,1,1.47-4.835l1.682-.9L6.888,27.581v2.188a3.565,3.565,0,0,1-4.793,3.354l16.963,9.055c.055.029.113.051.168.077a3.547,3.547,0,0,1-1.637-1.546" transform="translate(0.272 3.575)" fill="#a9c4ff"/>
    <path id="패스_909" data-name="패스 909" d="M18.151,40.841c-.12-.019-.237-.041-.352-.071a3.537,3.537,0,0,0,.352.071" transform="translate(2.307 5.284)"/>
    <path id="패스_910" data-name="패스 910" d="M18.651,40.879h0a3.65,3.65,0,0,1-.459-.03,3.625,3.625,0,0,0,.455.03" transform="translate(2.359 5.295)"/>
    <path id="패스_911" data-name="패스 911" d="M7.158,29.932V27.745l-1.891-1.01A3.573,3.573,0,0,0,.012,29.887v.042A3.573,3.573,0,0,0,1.9,33.04l.463.247a3.565,3.565,0,0,0,4.793-3.355" transform="translate(0.002 3.411)" fill="#5782ff"/>
    <path id="패스_912" data-name="패스 912" d="M17.439,40.652c-.06-.024-.119-.054-.178-.081.06.027.117.056.178.081" transform="translate(2.237 5.259)"/>
    <path id="패스_913" data-name="패스 913" d="M18.207,40.851c-.033,0-.064-.012-.1-.018.032.006.063.014.1.018" transform="translate(2.348 5.293)"/>
    <path id="패스_914" data-name="패스 914" d="M17.816,40.775c-.049-.012-.1-.03-.145-.045.049.015.1.033.145.045" transform="translate(2.291 5.279)"/>
    <path id="패스_915" data-name="패스 915" d="M19.817,40.643c-.093.037-.189.069-.285.1.1-.029.191-.06.285-.1" transform="translate(2.532 5.268)"/>
    <path id="패스_916" data-name="패스 916" d="M32.45,29.768V27.583L18.6,34.975l1.682.9a3.565,3.565,0,0,1-.168,6.381c.055-.027.113-.049.168-.078l16.975-9.06a3.566,3.566,0,0,1-4.809-3.349" transform="translate(2.411 3.575)" fill="#a9c4ff"/>
    <path id="패스_917" data-name="패스 917" d="M19.444,40.77a3.345,3.345,0,0,1-.349.07,3.405,3.405,0,0,0,.349-.07" transform="translate(2.475 5.284)"/>
    <path id="패스_918" data-name="패스 918" d="M18.605,40.879a3.625,3.625,0,0,0,.455-.03,3.65,3.65,0,0,1-.459.03h0" transform="translate(2.411 5.295)"/>
    <path id="패스_919" data-name="패스 919" d="M32.758,26.736l-1.9,1.012v2.185a3.563,3.563,0,0,0,4.809,3.348l.453-.241a3.576,3.576,0,0,0,1.867-2.754c.01-.116.018-.235.018-.354v-.166a3.569,3.569,0,0,0-5.25-3.031" transform="translate(4 3.411)" fill="#5782ff"/>
    <path id="패스_920" data-name="패스 920" d="M22.164,39.86a3.573,3.573,0,0,0-1.47-4.835l-1.682-.9-1.682.9a3.565,3.565,0,0,0,.168,6.381c.059.028.117.058.178.081.093.037.189.069.285.1.049.015.1.033.145.045a3.334,3.334,0,0,0,.351.071c.032.006.063.014.1.018a3.463,3.463,0,0,0,.917,0c.033,0,.066-.014.1-.018.117-.019.235-.041.349-.071.05-.012.1-.031.146-.045.1-.029.191-.061.285-.1.06-.024.119-.053.177-.081a3.539,3.539,0,0,0,1.638-1.546" transform="translate(2.001 4.423)" fill="#8ab4ff"/>
    <path id="패스_921" data-name="패스 921" d="M21.754,1.855a3.573,3.573,0,0,1-1.47,4.835l-1.682.9,10.38,5.54L34.273,10.3a3.561,3.561,0,0,1,.735-.312l.059-.015c.089-.025.18-.049.272-.067.054-.011.11-.017.165-.025s.115-.019.175-.025c.095-.009.189-.012.284-.015l.06,0h.007A3.566,3.566,0,0,1,37.083,10l.038.014a3.567,3.567,0,0,1,2.468,3.111,3.572,3.572,0,0,0-1.879-3.441L20.285.385l-.006,0a3.559,3.559,0,0,1,1.474,1.472" transform="translate(2.411 0.05)" fill="#a9c4ff"/>
    <path id="패스_922" data-name="패스 922" d="M31.259,11.761a3.572,3.572,0,0,1,1.822-3.113L27.79,11.473l3.469,1.851Z" transform="translate(3.602 1.121)" fill="#5782ff"/>
    <path id="패스_923" data-name="패스 923" d="M30.861,11.814v1.563l1.9,1.012A3.574,3.574,0,0,0,38,11.584a3.575,3.575,0,0,0-2.465-3.17c-.012,0-.025-.009-.037-.014a3.606,3.606,0,0,0-1.054-.159c-.021,0-.044,0-.066,0q-.144,0-.285.014c-.059.007-.116.016-.175.025s-.111.015-.165.025c-.09.018-.182.042-.272.067-.019.006-.04.009-.059.016a3.54,3.54,0,0,0-.662.272l-.073.038a3.572,3.572,0,0,0-1.822,3.113" transform="translate(4 1.068)" fill="#3972ff"/>
    <path id="패스_924" data-name="패스 924" d="M.041,12.936c.011-.089.023-.178.041-.268.01-.047.024-.094.035-.141.016-.064.03-.129.05-.193s.046-.134.071-.2c.016-.042.029-.085.046-.127.037-.088.079-.174.122-.259.01-.019.017-.038.027-.056l0-.006c.049-.09.1-.177.158-.262a3.541,3.541,0,0,1,.694-.781l.027-.025c.066-.053.134-.1.2-.151.026-.018.051-.038.077-.056.054-.036.111-.068.167-.1s.089-.054.136-.079.082-.04.123-.06c.064-.03.128-.063.194-.09.026-.011.054-.019.081-.029.081-.032.163-.062.245-.088L2.6,9.95c.093-.027.186-.052.282-.071.113-.023.227-.041.342-.052h.01c.116-.011.234-.017.35-.017h0l.046,0c.1,0,.2,0,.306.015.038,0,.077.011.116.017.076.009.152.019.228.034.06.012.117.028.176.043s.107.025.16.042c.08.024.158.053.235.082.032.011.063.021.094.034.1.042.2.089.3.14l.023.01,0,0,.027.015,5.333,2.835L21.012,7.561,19.33,6.666a3.554,3.554,0,0,1,0-6.283l0,0L1.9,9.653A3.555,3.555,0,0,0,.024,13.08c0-.023,0-.045.006-.067s.008-.051.011-.077" transform="translate(0.002 0.05)" fill="#a9c4ff"/>
    <path id="패스_925" data-name="패스 925" d="M4.09,8.377c.079.024.157.053.235.082C4.247,8.43,4.17,8.4,4.09,8.377" transform="translate(0.53 1.086)"/>
    <path id="패스_926" data-name="패스 926" d="M3.176,8.241h0l.051,0-.046,0" transform="translate(0.411 1.068)"/>
    <path id="패스_927" data-name="패스 927" d="M1.563,8.7c.045-.027.089-.055.136-.08-.046.025-.09.053-.136.08" transform="translate(0.203 1.117)"/>
    <path id="패스_928" data-name="패스 928" d="M3.792,8.3c.059.011.117.028.176.043-.059-.015-.116-.032-.176-.043" transform="translate(0.492 1.076)"/>
    <path id="패스_929" data-name="패스 929" d="M1.346,8.833c.026-.018.051-.038.077-.056-.026.018-.051.038-.077.056" transform="translate(0.174 1.138)"/>
    <path id="패스_930" data-name="패스 930" d="M2.851,8.258h0" transform="translate(0.37 1.07)"/>
    <path id="패스_931" data-name="패스 931" d="M3.486,8.257c.038,0,.078.011.116.016-.038,0-.077-.012-.116-.016" transform="translate(0.452 1.07)"/>
    <path id="패스_932" data-name="패스 932" d="M4.381,8.48c.1.043.2.09.3.14-.1-.05-.2-.1-.3-.14" transform="translate(0.568 1.099)"/>
    <path id="패스_933" data-name="패스 933" d="M2.3,8.375c.094-.027.188-.052.282-.071-.1.019-.19.044-.282.071" transform="translate(0.298 1.076)"/>
    <path id="패스_934" data-name="패스 934" d="M1.792,8.573c.064-.032.128-.063.193-.09-.066.027-.129.059-.193.09" transform="translate(0.232 1.099)"/>
    <path id="패스_935" data-name="패스 935" d="M2.036,8.466c.081-.032.162-.062.245-.088-.084.026-.165.056-.245.088" transform="translate(0.264 1.086)"/>
    <path id="패스_936" data-name="패스 936" d="M4.668,8.616l.027.015-.027-.015" transform="translate(0.605 1.117)"/>
    <path id="패스_937" data-name="패스 937" d="M.387,9.94c.049-.091.1-.178.158-.263-.056.086-.11.173-.158.263" transform="translate(0.05 1.254)"/>
    <path id="패스_938" data-name="패스 938" d="M.149,10.509c.02-.068.046-.134.071-.2-.025.067-.051.133-.071.2" transform="translate(0.019 1.336)"/>
    <path id="패스_939" data-name="패스 939" d="M.028,11.1c0-.026.008-.051.011-.077,0,.026-.009.051-.011.077" transform="translate(0.004 1.428)"/>
    <path id="패스_940" data-name="패스 940" d="M.074,10.8c.009-.047.023-.094.034-.141-.011.047-.025.094-.034.141" transform="translate(0.01 1.381)"/>
    <path id="패스_941" data-name="패스 941" d="M1.142,8.986c.009-.008.018-.017.027-.024-.009.007-.018.016-.027.024" transform="translate(0.148 1.162)"/>
    <path id="패스_942" data-name="패스 942" d="M.253,10.225c.036-.088.078-.174.122-.26-.043.086-.085.171-.122.26" transform="translate(0.033 1.292)"/>
    <path id="패스_943" data-name="패스 943" d="M.029,11.089c0,.023,0,.045-.006.068v.028c0-.032,0-.064,0-.1" transform="translate(0.003 1.437)"/>
    <path id="패스_944" data-name="패스 944" d="M1.963,8.486c.027-.011.055-.019.082-.03-.027.011-.055.019-.082.03" transform="translate(0.254 1.096)"/>
    <path id="패스_945" data-name="패스 945" d="M4.693,8.629a3.571,3.571,0,0,1,1.858,3.135v1.566l3.475-1.854Z" transform="translate(0.608 1.118)" fill="#5782ff"/>
    <path id="패스_946" data-name="패스 946" d="M1.222,8.983a3.559,3.559,0,0,0-.694.784,3.588,3.588,0,0,1,.694-.784" transform="translate(0.068 1.164)"/>
    <path id="패스_947" data-name="패스 947" d="M2.253,8.381c.017-.006.035-.008.052-.014-.017.006-.035.008-.052.014" transform="translate(0.292 1.084)"/>
    <path id="패스_948" data-name="패스 948" d="M2.861,8.259c.115-.011.233-.018.35-.018-.116,0-.234.007-.35.018" transform="translate(0.371 1.068)"/>
    <path id="패스_949" data-name="패스 949" d="M.212,10.323c.016-.043.028-.086.045-.128-.017.043-.029.085-.045.128" transform="translate(0.027 1.321)"/>
    <path id="패스_950" data-name="패스 950" d="M2.549,8.31a3.4,3.4,0,0,1,.341-.052c-.114.011-.228.029-.341.052" transform="translate(0.33 1.07)"/>
    <path id="패스_951" data-name="패스 951" d="M.038,11.052c.011-.09.024-.181.041-.269-.018.089-.029.18-.041.269" transform="translate(0.005 1.398)"/>
    <path id="패스_952" data-name="패스 952" d="M1.682,8.623c.041-.021.082-.04.123-.06-.041.02-.082.038-.123.06" transform="translate(0.218 1.11)"/>
    <path id="패스_953" data-name="패스 953" d="M.388,9.916c-.01.019-.017.038-.027.056.011-.02.019-.042.03-.062l0,.006" transform="translate(0.047 1.284)"/>
    <path id="패스_954" data-name="패스 954" d="M3.948,8.34c.054.014.108.026.16.041-.053-.016-.107-.027-.16-.041" transform="translate(0.512 1.081)"/>
    <path id="패스_955" data-name="패스 955" d="M3.589,8.271c.077.011.154.021.229.036-.077-.015-.152-.025-.229-.036" transform="translate(0.465 1.072)"/>
    <path id="패스_956" data-name="패스 956" d="M3.216,8.243c.1,0,.2.006.3.016-.1-.01-.2-.015-.3-.016" transform="translate(0.417 1.068)"/>
    <path id="패스_957" data-name="패스 957" d="M1.415,8.789c.054-.036.111-.068.167-.1-.056.034-.113.066-.167.1" transform="translate(0.183 1.126)"/>
    <path id="패스_958" data-name="패스 958" d="M4.667,8.615,4.644,8.6l.027.012Z" transform="translate(0.602 1.115)"/>
    <path id="패스_959" data-name="패스 959" d="M.1,10.68c.016-.066.03-.131.05-.194-.019.064-.034.129-.05.194" transform="translate(0.013 1.359)"/>
    <path id="패스_960" data-name="패스 960" d="M4.3,8.45c.032.012.063.021.094.034-.03-.012-.062-.021-.094-.034" transform="translate(0.557 1.095)"/>
    <path id="패스_961" data-name="패스 961" d="M1.166,8.979c.066-.054.134-.1.2-.152-.07.049-.139.1-.2.152" transform="translate(0.151 1.144)"/>
    <path id="패스_962" data-name="패스 962" d="M5.3,8.679l-.027-.015c-.009,0-.018-.008-.027-.014-.1-.051-.2-.1-.3-.14-.03-.012-.063-.023-.094-.034-.078-.029-.156-.059-.235-.082-.053-.016-.107-.028-.16-.042s-.117-.031-.176-.043c-.076-.015-.152-.025-.229-.035-.038,0-.077-.012-.116-.016-.1-.01-.2-.015-.3-.016l-.051,0c-.119,0-.235.007-.35.018H3.217c-.115.012-.229.031-.341.053-.095.019-.19.044-.282.071-.017,0-.035.008-.052.014-.082.025-.164.055-.245.087-.027.01-.055.019-.082.03-.066.027-.129.059-.193.09-.042.02-.084.038-.123.06s-.09.053-.136.08-.113.064-.167.1c-.027.018-.052.038-.078.058-.069.049-.138.1-.2.152a.272.272,0,0,0-.027.024,3.584,3.584,0,0,0-.694.784,3.062,3.062,0,0,0-.158.263c-.011.02-.02.042-.03.062-.044.086-.086.172-.122.26-.017.042-.03.085-.046.128-.025.067-.051.133-.071.2s-.034.129-.05.194c-.012.047-.025.094-.035.141-.017.088-.03.178-.041.269,0,.026-.008.051-.011.077s0,.064,0,.1A3.572,3.572,0,0,0,5.265,14.39l1.891-1.01V11.814A3.571,3.571,0,0,0,5.3,8.679" transform="translate(0.003 1.068)" fill="#3972ff"/>
    <path id="패스_963" data-name="패스 963" d="M15.86,1.9a3.573,3.573,0,0,0,1.47,4.835l1.682.9,1.682-.9a3.573,3.573,0,0,0,0-6.307c-.1-.055-.21-.105-.316-.149-.081-.034-.166-.061-.25-.089C20.1.185,20.073.173,20.047.165,19.963.141,19.877.12,19.791.1L19.71.082c-.077-.016-.155-.026-.233-.036-.038,0-.076-.012-.114-.016C19.3.023,19.235.022,19.169.02s-.105-.007-.158-.007-.1,0-.148.006c-.069,0-.137,0-.2.011-.035,0-.07.01-.105.015-.08.011-.162.021-.241.037-.025,0-.05.012-.073.018-.088.019-.176.04-.263.066-.025.008-.05.019-.076.027-.084.027-.167.055-.25.089-.107.044-.212.094-.317.149A3.557,3.557,0,0,0,15.86,1.9" transform="translate(2.001 0.002)" fill="#8ab4ff"/>
    <path id="패스_964" data-name="패스 964" d="M0,11.792a3.57,3.57,0,1,1,3.57,3.57A3.57,3.57,0,0,1,0,11.792" transform="translate(0 1.066)" fill="#4d4dff"/>
    <path id="패스_965" data-name="패스 965" d="M30.872,11.792a3.57,3.57,0,1,1,3.57,3.57,3.57,3.57,0,0,1-3.57-3.57" transform="translate(4.002 1.066)" fill="#4d4dff"/>
    <path id="패스_966" data-name="패스 966" d="M.007,29.929a3.57,3.57,0,1,1,3.57,3.57,3.57,3.57,0,0,1-3.57-3.57" transform="translate(0.001 3.417)" fill="#4d4dff"/>
    <path id="패스_967" data-name="패스 967" d="M15.441,38.124a3.57,3.57,0,1,1,3.57,3.57,3.57,3.57,0,0,1-3.57-3.57" transform="translate(2.001 4.479)" fill="#5782ff"/>
    <path id="패스_968" data-name="패스 968" d="M15.441,20.027a3.57,3.57,0,1,1,3.57,3.571,3.57,3.57,0,0,1-3.57-3.571" transform="translate(2.001 2.133)" fill="#4d4dff"/>
    <path id="패스_969" data-name="패스 969" d="M15.441,3.57a3.57,3.57,0,1,1,3.57,3.57,3.57,3.57,0,0,1-3.57-3.57" transform="translate(2.001 0)" fill="#5782ff"/>
    <path id="패스_970" data-name="패스 970" d="M30.879,29.929a3.57,3.57,0,1,1,3.57,3.57,3.57,3.57,0,0,1-3.57-3.57" transform="translate(4.003 3.417)" fill="#4d4dff"/>
    <path id="패스_971" data-name="패스 971" d="M18.677,23.968a3.566,3.566,0,0,1-.168-6.381l1.683-.9-10.38-5.54L6.338,13v4.392l12.171,6.5c.055.029.112.051.168.077" transform="translate(0.822 1.445)" fill="#5782ff"/>
    <path id="패스_972" data-name="패스 972" d="M28.981,11.149,18.6,16.69l1.682.9a3.566,3.566,0,0,1-.168,6.381c.055-.026.113-.047.168-.077L32.45,17.4V13Z" transform="translate(2.411 1.445)" fill="#5782ff"/>
    <path id="패스_973" data-name="패스 973" d="M60.268,28.956l-2.527-3.707a8.257,8.257,0,0,0,3.092-6.492,8.29,8.29,0,0,0-8.271-8.229H46.044a3.4,3.4,0,0,0-3.4,3.4V30.822a3.4,3.4,0,0,0,6.807,0V27.073h1.3l3.894,5.716a3.4,3.4,0,1,0,5.624-3.833M49.446,17.333h3.115a1.467,1.467,0,0,1,0,2.934H49.446Z" transform="translate(5.527 1.364)" fill="#5782ff"/>
    <path id="패스_974" data-name="패스 974" d="M81.6,34.3a3.4,3.4,0,0,1-3.4-3.4V22.167L75.535,24.83a3.4,3.4,0,0,1-4.812,0L68.06,22.167v8.677a3.4,3.4,0,1,1-6.8,0V13.953a3.4,3.4,0,0,1,5.809-2.406l6.065,6.065,6.065-6.065A3.4,3.4,0,0,1,85,13.953V30.895a3.4,3.4,0,0,1-3.4,3.4" transform="translate(7.94 1.367)" fill="#5782ff"/>
    <path id="패스_975" data-name="패스 975" d="M102.836,16.26c.685-1.737-.051-3.259-1.888-4.137a15.306,15.306,0,0,0-7-1.57c-6.651,0-8.847,3.985-8.847,7.6a7.55,7.55,0,0,0,1.272,4.185h0c1.287,1.667,2.862,2.421,7.4,3.208.644.112,2.247.512,2,1.67-.081.376-.335,1.426-2.492,1.048a28.552,28.552,0,0,1-3.524-.76c-1.814-.546-4.093-.722-4.737.913-.685,1.737.051,3.259,1.886,4.137a15.311,15.311,0,0,0,7,1.57c6.65,0,8.846-3.985,8.846-7.6a7.55,7.55,0,0,0-1.272-4.185c-1.287-1.667-2.862-2.421-7.4-3.208-.643-.112-2.246-.512-1.995-1.67.081-.376.336-1.426,2.491-1.048a28.53,28.53,0,0,1,3.526.76c1.813.546,4.093.722,4.736-.913" transform="translate(10.987 1.368)" fill="#5782ff"/>
  </g>
</svg>
