<svg xmlns="http://www.w3.org/2000/svg" xmlns:xlink="http://www.w3.org/1999/xlink" width="24" height="24" viewBox="0 0 24 24">
  <defs>
    <clipPath id="clip-path">
      <rect id="사각형_576" data-name="사각형 576" width="24" height="24" fill="currentColor"/>
    </clipPath>
  </defs>
  <g id="그룹_1161" data-name="그룹 1161" clip-path="url(#clip-path)">
    <path id="패스_1349" data-name="패스 1349" d="M16.79,10.343l-2.617-.38a.609.609,0,0,1-.458-.333l-1.17-2.371a.607.607,0,0,0-1.089,0L10.285,9.63a.606.606,0,0,1-.457.333l-2.617.38a.608.608,0,0,0-.337,1.036l1.894,1.846a.606.606,0,0,1,.175.537L8.5,16.369a.607.607,0,0,0,.881.64l2.341-1.23a.607.607,0,0,1,.565,0l2.341,1.23a.607.607,0,0,0,.881-.64l-.447-2.607a.606.606,0,0,1,.175-.537l1.894-1.846a.608.608,0,0,0-.337-1.036" fill="#9d9ea5"/>
    <path id="패스_1350" data-name="패스 1350" d="M12,1.664A10.336,10.336,0,1,0,22.336,12,10.348,10.348,0,0,0,12,1.664m0,19.072A8.736,8.736,0,1,1,20.736,12,8.746,8.746,0,0,1,12,20.736" fill="#9d9ea5"/>
  </g>
</svg>
